<svg width="91" height="128" viewBox="0 0 91 128" fill="none" xmlns="http://www.w3.org/2000/svg">
<path d="M45.5003 90.9994C20.3715 90.9994 0.000572205 70.6285 0.000572205 45.4997C0.000572205 20.3709 20.3715 0 45.5003 0C70.6291 0 91 20.3709 91 45.4997C91 70.6285 70.6291 90.9994 45.5003 90.9994ZM45.5003 23.6371C33.4259 23.6371 23.6377 33.4253 23.6377 45.4997C23.6377 57.5741 33.4259 67.3623 45.5003 67.3623C57.5747 67.3623 67.3629 57.5741 67.3629 45.4997C67.3629 33.4253 57.5747 23.6371 45.5003 23.6371Z" fill="#2563EB" fill-opacity="0.49"/>
<path d="M76.5247 58.611C82.5371 61.1519 89.6428 58.3163 90.5542 51.8531C91.0814 48.1151 91.1434 44.311 90.7276 40.5281C89.8789 32.8078 87.0681 25.4333 82.5628 19.1067C78.0576 12.7801 72.0078 7.71214 64.9895 4.38532C57.9713 1.0585 50.2183 -0.41638 42.4687 0.101105C34.7192 0.618591 27.2311 3.11122 20.7175 7.34164C14.2039 11.5721 8.88169 17.3994 5.25759 24.2689C1.63348 31.1383 -0.171842 38.8211 0.0135339 46.5857C0.104365 50.3902 0.671649 54.1523 1.69108 57.787C3.45376 64.0717 10.8734 65.9373 16.4946 62.6196L17.0831 62.2722C22.3792 59.1463 23.7907 52.1696 23.6439 46.0215V46.0215C23.5548 42.2906 24.4223 38.5991 26.1637 35.2983C27.9051 31.9975 30.4624 29.1975 33.5922 27.1648C36.7219 25.132 40.32 23.9343 44.0436 23.6857C47.7673 23.437 51.4926 24.1457 54.8649 25.7442C58.2371 27.3428 61.1441 29.778 63.3088 32.8179C65.4736 35.8578 66.8242 39.4013 67.232 43.1109V43.1109C67.904 49.2238 70.2305 55.951 75.8952 58.3449L76.5247 58.611Z" fill="#2563EB"/>
<path d="M0 46.2346C0 34.0105 16.2514 29.7745 22.2186 40.4431C23.2084 42.2129 23.7282 44.2068 23.7282 46.2346V115.405C23.7282 121.958 18.4164 127.269 11.8641 127.269C5.31173 127.269 0 121.958 0 115.405L0 46.2346Z" fill="#2563EB"/>
</svg>
