<svg width="580" height="132" viewBox="0 0 580 132" fill="none" xmlns="http://www.w3.org/2000/svg">
<path d="M45.5003 90.9994C20.3715 90.9994 0.000572205 70.6285 0.000572205 45.4997C0.000572205 20.3709 20.3715 0 45.5003 0C70.6291 0 91 20.3709 91 45.4997C91 70.6285 70.6291 90.9994 45.5003 90.9994ZM45.5003 23.6371C33.4259 23.6371 23.6377 33.4253 23.6377 45.4997C23.6377 57.5741 33.4259 67.3623 45.5003 67.3623C57.5747 67.3623 67.3629 57.5741 67.3629 45.4997C67.3629 33.4253 57.5747 23.6371 45.5003 23.6371Z" fill="white"/>
<path d="M76.5247 58.611C82.5371 61.1519 89.6428 58.3163 90.5542 51.8531C91.0814 48.1151 91.1434 44.311 90.7276 40.5281C89.8789 32.8078 87.0681 25.4333 82.5628 19.1067C78.0576 12.7801 72.0078 7.71214 64.9895 4.38532C57.9713 1.0585 50.2183 -0.41638 42.4687 0.101105C34.7192 0.618591 27.2311 3.11122 20.7175 7.34164C14.2039 11.5721 8.88169 17.3994 5.25759 24.2689C1.63348 31.1383 -0.171842 38.8211 0.0135339 46.5857C0.104365 50.3902 0.671649 54.1523 1.69108 57.787C3.45376 64.0717 10.8734 65.9373 16.4946 62.6196L17.0831 62.2722C22.3792 59.1463 23.7907 52.1696 23.6439 46.0215V46.0215C23.5548 42.2906 24.4223 38.5991 26.1637 35.2983C27.9051 31.9975 30.4624 29.1975 33.5922 27.1648C36.7219 25.132 40.32 23.9343 44.0436 23.6857C47.7673 23.437 51.4926 24.1457 54.8649 25.7442C58.2371 27.3428 61.1441 29.778 63.3088 32.8179C65.4736 35.8578 66.8242 39.4013 67.232 43.1109V43.1109C67.904 49.2238 70.2305 55.951 75.8952 58.3449L76.5247 58.611Z" fill="white"/>
<path d="M0 46.2346C0 34.0105 16.2514 29.7745 22.2186 40.4431C23.2084 42.2129 23.7282 44.2068 23.7282 46.2346V115.405C23.7282 121.958 18.4164 127.269 11.8641 127.269C5.31173 127.269 0 121.958 0 115.405L0 46.2346Z" fill="white"/>
<path d="M124.867 43.4746V69.2598H137.76C139.527 69.2598 141.189 68.9303 142.746 68.2715C144.303 67.5827 145.666 66.6543 146.834 65.4863C148.002 64.3184 148.915 62.9557 149.574 61.3984C150.263 59.8112 150.607 58.1341 150.607 56.3672C150.607 54.6003 150.263 52.9382 149.574 51.3809C148.915 49.7936 148.002 48.416 146.834 47.248C145.666 46.0801 144.303 45.1667 142.746 44.5078C141.189 43.819 139.527 43.4746 137.76 43.4746H124.867ZM124.867 95H111.975V30.582H137.76C140.126 30.582 142.402 30.8965 144.588 31.5254C146.774 32.1243 148.811 32.9928 150.697 34.1309C152.614 35.2389 154.351 36.5866 155.908 38.1738C157.495 39.7311 158.843 41.4681 159.951 43.3848C161.089 45.3014 161.958 47.3529 162.557 49.5391C163.186 51.7253 163.5 54.0013 163.5 56.3672C163.5 59.901 162.826 63.2402 161.479 66.3848C160.131 69.4993 158.289 72.2246 155.953 74.5605C153.617 76.8965 150.877 78.7383 147.732 80.0859C144.618 81.4336 141.294 82.1074 137.76 82.1074H124.867V95ZM216.283 70.5176C216.283 74.1113 215.639 77.4655 214.352 80.5801C213.064 83.6647 211.312 86.3451 209.096 88.6211C206.88 90.8672 204.274 92.6491 201.279 93.9668C198.314 95.2546 195.125 95.8984 191.711 95.8984C188.327 95.8984 185.137 95.2546 182.143 93.9668C179.178 92.6491 176.572 90.8672 174.326 88.6211C172.11 86.3451 170.358 83.6647 169.07 80.5801C167.783 77.4655 167.139 74.1113 167.139 70.5176C167.139 66.8639 167.783 63.4798 169.07 60.3652C170.358 57.2507 172.11 54.5703 174.326 52.3242C176.572 50.0482 179.178 48.2663 182.143 46.9785C185.137 45.6908 188.327 45.0469 191.711 45.0469C195.125 45.0469 198.314 45.6608 201.279 46.8887C204.274 48.0866 206.88 49.8086 209.096 52.0547C211.312 54.2708 213.064 56.9512 214.352 60.0957C215.639 63.2103 216.283 66.6842 216.283 70.5176ZM203.93 70.5176C203.93 68.541 203.6 66.7591 202.941 65.1719C202.312 63.5547 201.444 62.1771 200.336 61.0391C199.228 59.8711 197.925 58.9876 196.428 58.3887C194.96 57.7598 193.388 57.4453 191.711 57.4453C190.034 57.4453 188.447 57.7598 186.949 58.3887C185.482 58.9876 184.194 59.8711 183.086 61.0391C182.008 62.1771 181.154 63.5547 180.525 65.1719C179.896 66.7591 179.582 68.541 179.582 70.5176C179.582 72.3743 179.896 74.0964 180.525 75.6836C181.154 77.2708 182.008 78.6484 183.086 79.8164C184.194 80.9844 185.482 81.9128 186.949 82.6016C188.447 83.2604 190.034 83.5898 191.711 83.5898C193.388 83.5898 194.96 83.2754 196.428 82.6465C197.925 82.0176 199.228 81.1341 200.336 79.9961C201.444 78.8581 202.312 77.4805 202.941 75.8633C203.6 74.2461 203.93 72.4642 203.93 70.5176ZM235.42 95H223.066V27.752H235.42V95ZM259.273 33.8164C259.273 34.9544 259.049 36.0176 258.6 37.0059C258.18 37.9941 257.596 38.8626 256.848 39.6113C256.099 40.3301 255.215 40.9141 254.197 41.3633C253.209 41.7826 252.146 41.9922 251.008 41.9922C249.87 41.9922 248.792 41.7826 247.773 41.3633C246.785 40.9141 245.917 40.3301 245.168 39.6113C244.449 38.8626 243.865 37.9941 243.416 37.0059C242.997 36.0176 242.787 34.9544 242.787 33.8164C242.787 32.7083 242.997 31.6602 243.416 30.6719C243.865 29.6536 244.449 28.7852 245.168 28.0664C245.917 27.3177 246.785 26.7337 247.773 26.3145C248.792 25.8652 249.87 25.6406 251.008 25.6406C252.146 25.6406 253.209 25.8652 254.197 26.3145C255.215 26.7337 256.099 27.3177 256.848 28.0664C257.596 28.7852 258.18 29.6536 258.6 30.6719C259.049 31.6602 259.273 32.7083 259.273 33.8164ZM257.162 95H244.809V46.8887H257.162V95ZM308.598 56.457L299.613 65.4863C299.164 64.2285 298.55 63.1055 297.771 62.1172C296.993 61.099 296.109 60.2454 295.121 59.5566C294.163 58.8678 293.115 58.3438 291.977 57.9844C290.839 57.625 289.671 57.4453 288.473 57.4453C286.796 57.4453 285.208 57.7897 283.711 58.4785C282.243 59.1673 280.956 60.1406 279.848 61.3984C278.77 62.6263 277.916 64.0938 277.287 65.8008C276.658 67.5078 276.344 69.3945 276.344 71.4609C276.344 73.138 276.658 74.7103 277.287 76.1777C277.916 77.6452 278.77 78.9329 279.848 80.041C280.956 81.1491 282.243 82.0176 283.711 82.6465C285.208 83.2754 286.796 83.5898 288.473 83.5898C289.671 83.5898 290.824 83.4251 291.932 83.0957C293.04 82.7663 294.073 82.3021 295.031 81.7031C296.02 81.0742 296.888 80.3255 297.637 79.457C298.415 78.5586 299.044 77.5703 299.523 76.4922L308.508 85.5215C307.37 87.1387 306.052 88.5911 304.555 89.8789C303.087 91.1667 301.485 92.2598 299.748 93.1582C298.041 94.0566 296.229 94.7305 294.312 95.1797C292.426 95.6589 290.479 95.8984 288.473 95.8984C285.089 95.8984 281.899 95.2695 278.904 94.0117C275.939 92.724 273.334 90.972 271.088 88.7559C268.872 86.5397 267.12 83.9492 265.832 80.9844C264.544 78.0195 263.9 74.8451 263.9 71.4609C263.9 67.7773 264.544 64.3333 265.832 61.1289C267.12 57.9245 268.872 55.1393 271.088 52.7734C273.334 50.3776 275.939 48.4909 278.904 47.1133C281.899 45.7357 285.089 45.0469 288.473 45.0469C290.479 45.0469 292.441 45.3014 294.357 45.8105C296.304 46.3197 298.146 47.0684 299.883 48.0566C301.65 49.015 303.267 50.1979 304.734 51.6055C306.232 53.013 307.52 54.6302 308.598 56.457ZM326.207 113.328V100.975L333.035 101.064C334.233 101.064 335.386 100.87 336.494 100.48C337.602 100.091 338.62 99.5521 339.549 98.8633C340.507 98.1745 341.346 97.3509 342.064 96.3926C342.783 95.4642 343.367 94.446 343.816 93.3379C342.469 93.9069 341.091 94.4759 339.684 95.0449C338.306 95.6139 336.913 95.8984 335.506 95.8984C332.541 95.8984 329.756 95.3743 327.15 94.3262C324.545 93.278 322.254 91.7956 320.277 89.8789C318.331 87.9323 316.788 85.5814 315.65 82.8262C314.542 80.041 313.988 76.9264 313.988 73.4824V46.8887H326.207V73.4824C326.207 75.1895 326.447 76.6868 326.926 77.9746C327.435 79.2324 328.109 80.2956 328.947 81.1641C329.786 82.0026 330.759 82.6315 331.867 83.0508C333.005 83.4701 334.218 83.6797 335.506 83.6797C336.764 83.6797 337.947 83.3952 339.055 82.8262C340.193 82.2272 341.181 81.4486 342.02 80.4902C342.858 79.5319 343.517 78.4538 343.996 77.2559C344.475 76.028 344.715 74.7702 344.715 73.4824V46.8887H357.068V88.9355C357.038 92.3197 356.38 95.4941 355.092 98.459C353.804 101.424 352.037 104.014 349.791 106.23C347.575 108.447 344.984 110.199 342.02 111.486C339.055 112.774 335.88 113.418 332.496 113.418L326.207 113.328Z" fill="white"/>
<path d="M380.652 43.4746V69.2598H393.545C395.312 69.2598 396.974 68.9303 398.531 68.2715C400.089 67.5827 401.451 66.6543 402.619 65.4863C403.787 64.3184 404.701 62.9557 405.359 61.3984C406.048 59.8112 406.393 58.1341 406.393 56.3672C406.393 54.6003 406.048 52.9382 405.359 51.3809C404.701 49.7936 403.787 48.416 402.619 47.248C401.451 46.0801 400.089 45.1667 398.531 44.5078C396.974 43.819 395.312 43.4746 393.545 43.4746H380.652ZM380.652 95H367.76V30.582H393.545C395.911 30.582 398.187 30.8965 400.373 31.5254C402.559 32.1243 404.596 32.9928 406.482 34.1309C408.399 35.2389 410.136 36.5866 411.693 38.1738C413.281 39.7311 414.628 41.4681 415.736 43.3848C416.874 45.3014 417.743 47.3529 418.342 49.5391C418.971 51.7253 419.285 54.0013 419.285 56.3672C419.285 59.901 418.611 63.2402 417.264 66.3848C415.916 69.4993 414.074 72.2246 411.738 74.5605C409.402 76.8965 406.662 78.7383 403.518 80.0859C400.403 81.4336 397.079 82.1074 393.545 82.1074H380.652V95ZM440.039 33.8164C440.039 34.9544 439.814 36.0176 439.365 37.0059C438.946 37.9941 438.362 38.8626 437.613 39.6113C436.865 40.3301 435.981 40.9141 434.963 41.3633C433.975 41.7826 432.911 41.9922 431.773 41.9922C430.635 41.9922 429.557 41.7826 428.539 41.3633C427.551 40.9141 426.682 40.3301 425.934 39.6113C425.215 38.8626 424.631 37.9941 424.182 37.0059C423.762 36.0176 423.553 34.9544 423.553 33.8164C423.553 32.7083 423.762 31.6602 424.182 30.6719C424.631 29.6536 425.215 28.7852 425.934 28.0664C426.682 27.3177 427.551 26.7337 428.539 26.3145C429.557 25.8652 430.635 25.6406 431.773 25.6406C432.911 25.6406 433.975 25.8652 434.963 26.3145C435.981 26.7337 436.865 27.3177 437.613 28.0664C438.362 28.7852 438.946 29.6536 439.365 30.6719C439.814 31.6602 440.039 32.7083 440.039 33.8164ZM437.928 95H425.574V46.8887H437.928V95ZM459.67 95H447.316V27.752H459.67V95ZM515.553 70.5176C515.553 74.1113 514.909 77.4655 513.621 80.5801C512.333 83.6647 510.581 86.3451 508.365 88.6211C506.149 90.8672 503.544 92.6491 500.549 93.9668C497.584 95.2546 494.395 95.8984 490.98 95.8984C487.596 95.8984 484.407 95.2546 481.412 93.9668C478.447 92.6491 475.842 90.8672 473.596 88.6211C471.38 86.3451 469.628 83.6647 468.34 80.5801C467.052 77.4655 466.408 74.1113 466.408 70.5176C466.408 66.8639 467.052 63.4798 468.34 60.3652C469.628 57.2507 471.38 54.5703 473.596 52.3242C475.842 50.0482 478.447 48.2663 481.412 46.9785C484.407 45.6908 487.596 45.0469 490.98 45.0469C494.395 45.0469 497.584 45.6608 500.549 46.8887C503.544 48.0866 506.149 49.8086 508.365 52.0547C510.581 54.2708 512.333 56.9512 513.621 60.0957C514.909 63.2103 515.553 66.6842 515.553 70.5176ZM503.199 70.5176C503.199 68.541 502.87 66.7591 502.211 65.1719C501.582 63.5547 500.714 62.1771 499.605 61.0391C498.497 59.8711 497.195 58.9876 495.697 58.3887C494.23 57.7598 492.658 57.4453 490.98 57.4453C489.303 57.4453 487.716 57.7598 486.219 58.3887C484.751 58.9876 483.464 59.8711 482.355 61.0391C481.277 62.1771 480.424 63.5547 479.795 65.1719C479.166 66.7591 478.852 68.541 478.852 70.5176C478.852 72.3743 479.166 74.0964 479.795 75.6836C480.424 77.2708 481.277 78.6484 482.355 79.8164C483.464 80.9844 484.751 81.9128 486.219 82.6016C487.716 83.2604 489.303 83.5898 490.98 83.5898C492.658 83.5898 494.23 83.2754 495.697 82.6465C497.195 82.0176 498.497 81.1341 499.605 79.9961C500.714 78.8581 501.582 77.4805 502.211 75.8633C502.87 74.2461 503.199 72.4642 503.199 70.5176ZM546.1 95C543.135 95 540.35 94.446 537.744 93.3379C535.139 92.1999 532.848 90.6576 530.871 88.7109C528.924 86.7344 527.382 84.4434 526.244 81.8379C525.136 79.2324 524.582 76.4473 524.582 73.4824V59.1973H518.607V46.9785H524.582V27.752H536.801V46.9785H555.398V59.1973H536.801V73.4824C536.801 74.7702 537.04 75.9831 537.52 77.1211C537.999 78.2292 538.658 79.2025 539.496 80.041C540.335 80.8796 541.323 81.5534 542.461 82.0625C543.599 82.5417 544.812 82.7812 546.1 82.7812H555.398V95H546.1Z" fill="white"/>
</svg>
